<mxfile host="app.diagrams.net" agent="Mozilla/5.0 (Windows NT 10.0; Win64; x64) AppleWebKit/537.36 (KHTML, like Gecko) Chrome/139.0.0.0 Safari/537.36" version="28.1.0">
  <diagram name="畑画面ワイヤーフレーム" id="BWZU0_GA0GNSgPDQjLvc">
    <mxGraphModel dx="828" dy="451" grid="1" gridSize="10" guides="1" tooltips="1" connect="1" arrows="1" fold="1" page="1" pageScale="1" pageWidth="827" pageHeight="1169" math="0" shadow="0">
      <root>
        <mxCell id="0" />
        <mxCell id="1" parent="0" />
        <mxCell id="4UhqMraIa9Y2jz5qjjHy-1" value="ユーザー: player123 | 日数: 3日目 | [倉庫へ]" style="rounded=1;fillColor=#e0e0e0;" vertex="1" parent="1">
          <mxGeometry x="20" y="20" width="400" height="40" as="geometry" />
        </mxCell>
        <mxCell id="4UhqMraIa9Y2jz5qjjHy-2" value="□" style="rounded=1;whiteSpace=wrap;html=1;" vertex="1" parent="1">
          <mxGeometry x="100" y="80" width="40" height="40" as="geometry" />
        </mxCell>
        <mxCell id="4UhqMraIa9Y2jz5qjjHy-3" value="□" style="rounded=1;whiteSpace=wrap;html=1;" vertex="1" parent="1">
          <mxGeometry x="150" y="80" width="40" height="40" as="geometry" />
        </mxCell>
        <mxCell id="4UhqMraIa9Y2jz5qjjHy-4" value="□" style="rounded=1;whiteSpace=wrap;html=1;" vertex="1" parent="1">
          <mxGeometry x="200" y="80" width="40" height="40" as="geometry" />
        </mxCell>
        <mxCell id="4UhqMraIa9Y2jz5qjjHy-5" value="□" style="rounded=1;whiteSpace=wrap;html=1;" vertex="1" parent="1">
          <mxGeometry x="250" y="80" width="40" height="40" as="geometry" />
        </mxCell>
        <mxCell id="4UhqMraIa9Y2jz5qjjHy-6" value="□" style="rounded=1;whiteSpace=wrap;html=1;" vertex="1" parent="1">
          <mxGeometry x="300" y="80" width="40" height="40" as="geometry" />
        </mxCell>
        <mxCell id="4UhqMraIa9Y2jz5qjjHy-7" value="□" style="rounded=1;whiteSpace=wrap;html=1;" vertex="1" parent="1">
          <mxGeometry x="100" y="130" width="40" height="40" as="geometry" />
        </mxCell>
        <mxCell id="4UhqMraIa9Y2jz5qjjHy-8" value="□" style="rounded=1;whiteSpace=wrap;html=1;" vertex="1" parent="1">
          <mxGeometry x="150" y="130" width="40" height="40" as="geometry" />
        </mxCell>
        <mxCell id="4UhqMraIa9Y2jz5qjjHy-9" value="□" style="rounded=1;whiteSpace=wrap;html=1;" vertex="1" parent="1">
          <mxGeometry x="200" y="130" width="40" height="40" as="geometry" />
        </mxCell>
        <mxCell id="4UhqMraIa9Y2jz5qjjHy-10" value="□" style="rounded=1;whiteSpace=wrap;html=1;" vertex="1" parent="1">
          <mxGeometry x="250" y="130" width="40" height="40" as="geometry" />
        </mxCell>
        <mxCell id="4UhqMraIa9Y2jz5qjjHy-11" value="□" style="rounded=1;whiteSpace=wrap;html=1;" vertex="1" parent="1">
          <mxGeometry x="300" y="130" width="40" height="40" as="geometry" />
        </mxCell>
        <mxCell id="4UhqMraIa9Y2jz5qjjHy-12" value="□" style="rounded=1;whiteSpace=wrap;html=1;" vertex="1" parent="1">
          <mxGeometry x="100" y="180" width="40" height="40" as="geometry" />
        </mxCell>
        <mxCell id="4UhqMraIa9Y2jz5qjjHy-13" value="□" style="rounded=1;whiteSpace=wrap;html=1;" vertex="1" parent="1">
          <mxGeometry x="150" y="180" width="40" height="40" as="geometry" />
        </mxCell>
        <mxCell id="4UhqMraIa9Y2jz5qjjHy-14" value="□" style="rounded=1;whiteSpace=wrap;html=1;" vertex="1" parent="1">
          <mxGeometry x="200" y="180" width="40" height="40" as="geometry" />
        </mxCell>
        <mxCell id="4UhqMraIa9Y2jz5qjjHy-15" value="□" style="rounded=1;whiteSpace=wrap;html=1;" vertex="1" parent="1">
          <mxGeometry x="250" y="180" width="40" height="40" as="geometry" />
        </mxCell>
        <mxCell id="4UhqMraIa9Y2jz5qjjHy-16" value="□" style="rounded=1;whiteSpace=wrap;html=1;" vertex="1" parent="1">
          <mxGeometry x="300" y="180" width="40" height="40" as="geometry" />
        </mxCell>
        <mxCell id="4UhqMraIa9Y2jz5qjjHy-17" value="💬 成熟した芋はクリックで収穫できます" style="dashed=1;" vertex="1" parent="1">
          <mxGeometry x="20" y="250" width="400" height="30" as="geometry" />
        </mxCell>
      </root>
    </mxGraphModel>
  </diagram>
</mxfile>
